<?xml version="1.0" encoding="utf-8"?>
<!-- Generator: Adobe Illustrator 23.0.3, SVG Export Plug-In . SVG Version: 6.00 Build 0)  -->
<svg version="1.1" xmlns="http://www.w3.org/2000/svg" xmlns:xlink="http://www.w3.org/1999/xlink" x="0px" y="0px"
	 viewBox="0 0 1080 1080" style="enable-background:new 0 0 1080 1080;" xml:space="preserve">
<style type="text/css">
	.st0{fill:#FFFFFF;}
	.st1{fill:#666666;}
	.st2{fill:#1A1A1A;}
	.st3{fill:url(#SVGID_1_);}
	.st4{fill:#E5E5E5;}
	.st5{opacity:0.8;fill:#F2F2F2;}
	.st6{opacity:0.5;fill:#E5E5E5;}
	.st7{fill:#CCCCCC;}
</style>
<g id="Capa_3">
	<g>
		<path class="st0" d="M794.67,712.05c0,13.85-69.23,60.33-79.12,98.9l-59.34-55.38c0,0-21.76-21.76-45.49-6.92
			c0,0,19.78-22.75,45.49-18.79V508.31v-3.96c-31.65,27.69-52.42,59.34-53.41,59.34l-42.53-21.76v239.34
			c40.55,8.9,50.44,37.58,50.44,37.58c-52.42-31.65-127.58,37.58-127.58,155.27c1.98-0.99,3.96-0.99,5.93-0.99
			c9.89,0,18.79,9.89,17.8,20.77c-0.99,7.91-7.91,14.84-15.82,15.82c-10.88,0.99-20.77-7.91-20.77-17.8c0-0.99,0-0.99,0-0.99V507.33
			c0,0,0.99-1.98,0-1.98c-89.01-55.38-170.11-27.69-170.11,46.48c0,82.09,65.27,91.98,65.27,91.98c-43.52,0-78.13-49.45-78.13-90
			c0-74.17,46.48-159.23,182.97-142.42V274.91v-48.46c0-12.86-5.93-25.71-15.82-34.61l-42.53-36.59c-8.9-7.91-20.77-6.92-28.68,0
			c-1.98,1.98-4.94,4.94-6.92,6.92c-9.89,9.89-20.77,21.76-31.65,33.63c-9.89,11.87-19.78,25.71-28.68,39.56
			c-3.96,6.92-7.91,14.84-11.87,22.75c-2.97,6.92-5.93,14.84-7.91,23.74c-2.97,7.91-3.96,15.82-4.95,24.73v2.97v0.99v1.98v2.97v2.97
			v1.98l0.99,0.99v3.96c0,1.98,0,3.96,0.99,5.93c0.99,3.96,1.98,7.91,2.97,11.87c0.99,1.98,1.98,2.97,1.98,4.94l1.98,2.97
			c0,0.99,0.99,1.98,0.99,2.97c3.96,6.92,9.89,12.86,15.82,16.81c6.92,4.94,13.85,7.91,20.77,8.9c7.91,1.98,14.84,1.98,22.75,0.99
			c13.85-0.99,26.7-6.92,37.58-14.84c9.89-7.91,17.8-16.81,22.75-25.71c1.98-4.95,3.96-8.9,5.93-13.85
			c1.98-3.96,2.97-7.91,2.97-11.87c1.98-6.92,1.98-12.86,2.97-16.81c0-1.98,0-3.96,0-4.94c0-0.99,0-1.98,0-1.98s0,0.99,0,1.98
			c0,0.99,0,2.97,0,4.94c0,3.96-0.99,9.89-1.98,16.81c-0.99,3.96-1.98,7.91-2.97,12.86c-1.98,3.96-3.96,8.9-5.93,12.86
			c-4.95,9.89-11.87,19.78-22.75,27.69c-9.89,7.91-23.74,13.85-38.57,16.81c-6.92,0.99-14.84,0.99-22.75-0.99
			c-7.91-0.99-15.82-3.96-22.75-8.9c-6.92-4.94-13.85-10.88-17.8-18.79c-0.99-0.99-0.99-1.98-1.98-2.97l-0.99-1.98
			c-0.99-1.98-1.98-3.96-2.97-5.93c-0.99-4.94-2.97-8.9-3.96-12.86c0-1.98,0-4.94-0.99-6.92v-2.97v-1.98l-0.99-0.99v-3.96v-2.97
			v-1.98v-0.99v-3.96c0-8.9,1.98-16.81,3.96-25.71c1.98-8.9,4.95-16.81,7.91-24.73c3.96-8.9,7.91-15.82,11.87-23.74
			c8.9-14.83,18.79-28.68,28.68-41.54c9.89-12.86,20.77-24.73,30.66-35.6c10.88-10.88,20.77-20.77,30.66-28.68
			c18.79-17.8,35.6-31.65,48.46-40.55c5.93-4.95,10.88-8.9,13.85-10.88c1.98-0.99,2.97-1.98,3.96-2.97s0.99-0.99,0.99-0.99
			l3.96,5.93l90,83.08v285.82l95.93,37.58V173.04c0,0-25.71-6.92-35.6-23.74l52.42-79.12c67.25,71.21,98.9,48.46,98.9,48.46
			s-10.88,16.81-25.71,25.71v326.37c0,14.83,9.89,27.69,23.74,32.64l12.86,4.94l-12.86,3.96c-14.84,4.94-23.74,18.79-23.74,33.63
			v168.13l3.96,3.96c10.88,8.9,25.71,8.9,36.59,0L794.67,712.05z"/>
	</g>
</g>
<g id="Capa_1">
	<g id="Nuevo_símbolo_10">
	</g>
</g>
</svg>
