<?xml version="1.0" encoding="utf-8"?>
<!-- Generator: Adobe Illustrator 23.0.3, SVG Export Plug-In . SVG Version: 6.00 Build 0)  -->
<svg version="1.1" xmlns="http://www.w3.org/2000/svg" xmlns:xlink="http://www.w3.org/1999/xlink" x="0px" y="0px"
	 viewBox="0 0 1080 1080" style="enable-background:new 0 0 1080 1080;" xml:space="preserve">
<style type="text/css">
	.st0{fill:#FFFFFF;}
	.st1{fill:#666666;}
	.st2{fill:#1A1A1A;}
	.st3{fill:url(#SVGID_1_);}
	.st4{fill:#E5E5E5;}
	.st5{opacity:0.8;fill:#F2F2F2;}
	.st6{opacity:0.5;fill:#E5E5E5;}
	.st7{fill:#CCCCCC;}
</style>
<g id="Capa_3">
	<g>
		<path class="st0" d="M145.89,530.81c22.08,20.78,44.17,41.55,67.39,63.4c14.27-17.69,27.72-34.1,40.82-50.77
			c4.06-5.17,3.06-9.9-3.77-11.97c-21.06-6.38-42.08-12.94-63.28-18.83c-34.63-9.63-69.4-18.76-104.09-28.17
			c-2.03-0.55-3.92-1.63-5.44-4.42c15.43,1.6,30.88,3.01,46.28,4.86c13.91,1.66,27.75,3.86,41.64,5.7
			c20.36,2.7,40.73,5.31,61.1,7.94c10.65,1.37,21.29,2.93,31.98,3.85c1.9,0.16,4.85-1.88,5.93-3.72
			c6.77-11.56,7.77-24.26,5.45-37.09c-6.8-37.69-14.12-75.29-20.86-113c-1.66-9.27-1.88-18.79-2.76-28.2
			c0.96-0.37,1.92-0.74,2.88-1.1c1.3,2.03,3.1,3.89,3.82,6.1c9.3,28.66,18.23,57.44,27.73,86.04c3.53,10.61,8.28,20.81,13.34,33.34
			c2.04-5.33,4.07-8.5,4.39-11.82c3.21-33.5,9.29-66.23,24-96.89c9-18.75-0.02-32.82-12.34-46.07
			c-14.79-15.91-29.45-31.96-43.91-48.17c-2.58-2.89-3.95-6.87-5.87-10.35c0.97-0.76,1.95-1.52,2.92-2.28
			c20.33,20.33,40.66,40.66,63,63.01c0.03-17.07,0.06-31.53,0.09-45.99c1.27-0.16,2.55-0.31,3.82-0.47
			c1.53,7.14,2.98,14.29,4.6,21.41c2.16,9.47,4.18,18.99,6.76,28.35c1.83,6.66,6.64,8.17,11.85,3.92
			c8.52-6.97,16.27-14.88,24.75-21.9c10.72-8.88,23.12-11.29,36.72-8.25c4.68,1.05,9.48,1.5,15.02,0.41
			c-34.98-14.16-69.95-28.33-104.93-42.49c-0.18-1.11-0.35-2.22-0.53-3.33c3.03-0.78,6.36-2.8,9.05-2.14
			c25.81,6.29,51.36,13.73,77.29,19.44c27.03,5.96,53.02,3.06,79.65-6.83c17.31-6.43,21.22-16.39,21.72-31.53
			c0.03-1,0.02-1.99,0.03-2.99c0.75-40.36,1.35-80.72,2.34-121.08c0.24-9.8,1.75-19.56,3.89-29.52c3.27,29.3,6.45,58.62,9.84,87.91
			c3.42,29.49,7.05,58.95,10.52,87.89c6.27,2.06,12.65,3.46,18.39,6.19c15.11,7.18,24.67,3.42,36.08-11.92
			c17.23-23.16,32.35-47.88,48.46-71.87c1.96-2.91,4.5-5.44,9.05-7.43c-0.26,2.78,0.13,5.82-0.88,8.3
			c-8.19,20.12-17.23,39.91-24.78,60.25c-4.34,11.71-7.64,24.12-9.13,36.49c-1.46,12.13,5.87,18.39,17.82,17.49
			c12.69-0.96,25.32-2.7,38-3.68c15.5-1.19,27.37-9.96,38.98-18.74c22.71-17.18,39.3-40.13,56.98-62.06
			c8.65-10.73,18.47-20.5,27.76-30.71c1.11,0.46,2.22,0.92,3.33,1.38c-0.89,3.47-0.98,7.46-2.81,10.33
			c-13.44,21.1-27.62,41.73-40.78,63c-8.99,14.54-19.62,28.97-19.8,46.91c-0.07,7.23,3.21,15.04,6.73,21.65
			c8.7,16.33,19.14,31.76,27.4,48.29c3.82,7.65,9.56,8.75,16.08,9.55c18.75,2.3,37.56,4.21,56.34,6.27
			c0.39,1.12,0.78,2.24,1.16,3.35c-2.96,1.5-5.82,3.98-8.91,4.32c-16.24,1.78-32.54,3.01-49.51,4.49
			c2.55,14.05,5.82,24.78,19.41,34.29c27.01,18.9,54.65,16.75,83.39,10.43c30.37-6.68,60.41-14.83,90.68-21.98
			c7.46-1.76,15.26-2.12,22.9-3.12c0.46,1.15,0.92,2.3,1.37,3.45c-2.8,1.62-5.42,3.81-8.44,4.77c-25.32,8.02-50.88,15.3-76.03,23.81
			c-22.42,7.59-44.81,15.35-63.15,31.65c-9.7,8.62-10.26,18.74-7.82,29.64c3.18,14.2,7.35,28.19,11.1,42.26
			c4.31,16.24,2.16,31.67-5.8,46.38c-2.93,5.42-5.36,11.22-8.94,16.18c-9.8,13.55-6.32,13.14,5.58,18.96
			c30,14.68,60.55,28.23,91.06,41.85c16.79,7.5,33.93,14.23,50.91,21.31c-0.23,1.21-0.46,2.41-0.7,3.62
			c-5.47-0.5-11.19-0.15-16.37-1.65c-24.89-7.18-49.45-15.57-74.49-22.14c-22.85-6-45.99-11.53-69.35-14.76
			c-16.73-2.31-19.13-0.28-21,16.1c-2.1,18.36-2.58,37.32-0.4,55.62c2.08,17.36,17.47,27.16,30.3,36.93
			c19.62,14.94,40.6,28.09,60.53,42.65c7.16,5.23,12.95,12.34,19.36,18.6c-1,1.4-2.01,2.8-3.01,4.2
			c-10.23-4.78-20.76-8.98-30.61-14.44c-23.6-13.07-46.71-27.02-70.34-40.02c-13.47-7.4-18.21-5.75-26.94,6.7
			c-2.6,3.71-5.18,7.44-7.73,11.11c21.99,27.2,43.82,54.19,65.65,81.19c-0.69,0.66-1.37,1.33-2.06,1.99
			c-25.76-22.85-51.51-45.71-75.39-66.9c-14.39,4.76-26.64,8.64-38.75,12.94c-3.9,1.38-7.75,3.41-11.06,5.9
			c-8.3,6.26-8.01,9.04,0.8,14.62c12.62,7.99,25.3,15.9,37.79,24.09c2.75,1.8,4.85,4.61,7.25,6.96c-0.56,0.79-1.11,1.58-1.67,2.38
			c-17.48-4.33-34.95-8.69-52.45-12.98c-17.54-4.3-12.49-6.12-20.2,8.62c-15.26,29.16-30.14,58.51-45.21,87.77
			c-0.69,1.34-1.66,2.53-5.28,3.77c-0.18-3.96-1.61-8.39-0.35-11.82c10.62-28.81,21.73-57.44,31.48-87.62
			c-7.07,5.17-14.23,10.24-21.19,15.54c-11.39,8.68-22.34,17.98-34.09,26.13c-7.75,5.38-9.32,12.48-9.19,20.82
			c0.58,39.04,1.17,78.07,1.74,117.11c0.05,3.59-0.01,7.19-1.42,11.04c-9.11-12.68-6.82-28.26-10.03-42.31
			c-3.47-15.19-4.23-30.99-6.31-46.5c-2.03-15.13-4.23-30.24-6.53-46.64c-28.76,3.98-54.45-7.87-81.09-14.89
			c-6.87-1.81-10.99-0.04-9.66,7.26c1.62,8.87,4.57,17.49,6.99,26.21c3.35,12.06,6.75,24.12,10.13,36.17
			c-1.35,0.64-2.7,1.29-4.05,1.93c-3-4.53-6.5-8.81-8.9-13.64c-8.25-16.62-15.71-33.63-24.25-50.09
			c-6.55-12.62-14.29-24.62-22.23-38.16c-31.47,48.23-61.85,94.81-92.24,141.39c-1.36-0.6-2.71-1.19-4.07-1.79
			c3.12-8.67,5.88-17.49,9.43-25.97c14.42-34.4,29.25-68.63,43.49-103.1c2.61-6.32,3.15-13.5,5.1-22.31
			c-25.42,8.34-48.4,15.88-71.37,23.42c-0.76-0.88-1.53-1.76-2.29-2.64c2.93-2.9,5.4-6.64,8.88-8.55
			c13.08-7.17,26.49-13.74,39.66-20.48c-14.83-12.38-28.73-23.99-42.84-35.77c-4.08,15.22,7.83,32.22-4.8,45.18
			c-1.09-0.13-2.18-0.25-3.27-0.38c-1.43-18.14-2.87-36.27-4.31-54.56c-15.66-3.17-29.58,0.96-42.34,7.29
			c-21.84,10.84-42.9,23.26-64.4,34.8c-5.03,2.7-10.52,4.53-15.8,6.77c-0.86-0.9-1.71-1.8-2.57-2.69
			c4.52-4.88,8.45-10.57,13.69-14.49c11.96-8.93,24.71-16.79,36.86-25.48c12.62-9.03,23.33-19.66,30.9-33.71
			c5.84-10.85,3.22-19.88-1.66-29.54c-7.01-13.86-13.03-28.28-20.88-41.63c-6.07-10.31-14.19-19.43-21.61-28.91
			c-7.85-10.02-16.23-19.63-23.87-29.79c-7.95-10.57-10.78-11.37-21.67-4.14c-4.79,3.18-9.59,6.34-14.38,9.51
			c-0.98-0.89-1.96-1.78-2.94-2.67c3.76-4.59,6.91-9.93,11.43-13.6c8.22-6.67,8.64-9.28,2.06-17.05
			c-16.91-19.96-33.54-40.17-50.13-60.41c-1.18-1.43-1.12-3.88-1.64-5.85C144.02,532.27,144.96,531.54,145.89,530.81z
			 M599.78,805.29c13.59-8.11,24.09-21.2,40.29-25.15c0.15-0.04,0.08-0.98,0.18-2.48c-13.83,1.55-27.43,4.12-41.07,4.35
			c-20.61,0.35-38.79,7.88-56.17,17.37c-6.88,3.76-11.73,11.24-17.5,17.02c0.59,0.74,1.19,1.48,1.78,2.23
			c7.44-0.55,14.87-1.1,22.31-1.65c-0.06-0.68-0.12-1.36-0.18-2.04c-3.99,0.35-7.98,0.7-12.23,1.08c1.47-7.94,4.16-10.36,14.06-9.78
			c13.85,0.82,26.54-1.75,38.75-8.32c3.35-1.8,7.89-1.41,13.54-2.29c-1.64,4.59-2.59,7.25-3.49,9.97
			c-14.07,12.66-2.14,26.85-2.19,40.33C598.5,832.38,599.14,818.84,599.78,805.29z M733.03,711.83c-3.46,10.8-7.43,22.26,1.12,31.89
			c6.97,7.85,16.01,13.88,24.13,20.72c0.86-0.91,1.73-1.82,2.59-2.73c-7.45-7.88-14.99-15.68-22.27-23.72
			c-1.37-1.51-2.05-3.91-2.44-6.02c-1.23-6.66-2.16-13.38-3.21-20.07c-0.82-11.72,7.99-18.37,13.83-26.67
			c7.28-10.36,14.09-21.06,21.11-31.61c-0.71-0.81-1.42-1.62-2.14-2.43c-6.32,1.83-12.23,4.59-15.69-4.42
			c-1.2-3.13-7.82-4.18-11.96-6.19c-0.23,0.49-0.46,0.97-0.68,1.46c5.72,5.4,11.44,10.79,17.38,16.39
			c-6.57,9.37-13.68,19.6-20.89,29.76c-7.14,10.07-15.88,19.36-21.01,30.35c-3.35,7.16-5.37,6.36-9.66,3.13
			c-3.08,8.2-7.16,15.85-8.74,23.99c-2.75,14.17-12.11,25.87-9.73,42.68c1.48,10.44-10.57,23.2-23.48,27.12
			c-11.22,3.41-22.82,2.28-28.22-12.29c-0.74,22.41-0.21,43.85-17.53,60.78c-0.95-2.54-1.59-4.23-1.98-5.27
			c-12.59,4.26-24.72,8.36-37.34,12.63c5.07,0.52,9.54,0.97,14,1.42c-0.15,1.03-0.3,2.06-0.46,3.1
			c-19.09-0.78-38.63,2.85-57.16-6.45c5.43-10.42,0.21-23.59-13.74-34.3c2.6,6.46,5.57,12.74,9.04,18.74
			c3.87,6.68,1.89,12.19-5.51,11.52c-5.06-0.46-12.95,5.88-15.93-5.11c-0.63-2.34-9.27-2.5-14.16-3.66
			c-0.24,4.88-0.24,4.88-19.43-0.39c2.34,7,4.51,13.48,6.96,20.83c0.88-3.13,1.47-5.19,1.53-5.4c7.6-0.72,14.17-2.83,20.07-1.63
			c17.07,3.47,34.03,7.7,50.73,12.66c32.96,9.79,68.18-1.31,82.99-27.22c7.27-12.72,13.66-24.39,29.63-24.2
			c3.45,0.01,6.89,0.01,10.34,0.02c-0.78-0.99-1.56-1.97-2.35-2.96c1.14-3.01,1.48-6.82,3.56-8.89
			c7.11-7.06,14.81-13.49,11.89-25.21c-0.22-0.89,0.05-2.02,0.42-2.91c8.08-19.44,15.63-39.14,24.58-58.17
			C717.36,724.33,721.74,714.49,733.03,711.83z M611.92,585.8c0.91-1.35,1.83-2.7,2.74-4.04c25.39,10.21,50.71,20.61,76.2,30.58
			c22.39,8.76,44.59,19.35,69.52,16.56c6.07-0.68,13.89-4.26,17.01-9.04c7.49-11.49,10.44-24.91,6.49-40.44
			c-13.35,12.13-25.4,25.41-37.86,38.31c-2.7,2.8-6.83,4.23-10.3,6.28c-0.54-0.78-1.08-1.55-1.62-2.33
			c1.43-2.48,2.63-5.13,4.31-7.42c12.68-17.32,25.53-34.52,38.18-51.86c8.28-11.34,6.82-22.72-1.76-33.48
			c-11.51-14.42-26.83-13.5-41.79-10.93c-44.15,7.56-88.12,16.2-132.18,24.29c-1.74,0.32-3.72-0.73-5.59-1.13
			c1.36-1.32,2.51-3.39,4.12-3.85c18.98-5.4,38.01-10.61,57.06-15.77c24.57-6.65,49.16-13.21,73.74-19.8
			c-0.86-6.84-0.52-11.24,1.04-15.16c7.18-18.07,14.43-36.12,22.19-53.95c4.74-10.88,2.66-21.2-4.65-28.78
			c-13.76-14.29-28.75-27.45-43.91-40.28c-6.29-5.32-14.08-6.8-23.03-3.89c-22.76,7.4-45.95,13.49-68.77,20.73
			c-3.24,1.03-6.78,5.14-7.78,8.53c-5.1,17.38-9.27,35.03-14.16,52.48c-0.73,2.59-3.52,4.6-5.36,6.88
			c-0.59-0.64-1.17-1.28-1.76-1.91c2.5-19.33,5-38.66,7.7-59.46c-19.78,5.93-37.36,11.21-54.95,16.48
			c-0.35-0.81-0.69-1.62-1.04-2.44c15.65-7.82,31.37-15.51,46.92-23.52c6.82-3.51,14.15-6.65,13.62-16.75
			c-0.23-4.38,2.11-8.82,2.5-13.31c1.36-15.46,2.38-30.95,3.69-48.59c-6.34,3.39-10.13,5.13-13.64,7.34
			c-25.04,15.69-41.09,39.93-59.44,62.08c-6.2,7.48-11.32,17.36-24.35,20.19c13.72-25.09,26.51-48.46,39.28-71.83
			c3.01-5.51,7.59-11.84-2.15-14.8c-7.04-2.14-15.4-4.9-21.88-2.99c-17.48,5.15-34.79,8.5-53.09,7.45
			c-7.92-0.45-17.61,16.65-13.99,23.75c16.13,31.63,32.41,63.18,48.52,94.82c0.89,1.75,0.74,4.04,1.07,6.07
			c-1.92-0.94-4.58-1.37-5.64-2.9c-12.91-18.72-25.62-37.59-38.31-56.47c-7.28-10.83-14.42-21.75-21.62-32.63
			c-1.48,0.35-2.96,0.69-4.45,1.04c-2.76,24.96-5.51,49.92-8.59,77.73c-13.13-16.84-5.19-38.57-20.03-53.2
			c-15.76,11.24-17.97,31.87-32.63,42.81c12.85,12.19,24.71,23.46,36.58,34.72c-0.39,0.84-0.77,1.67-1.16,2.51
			c-2.68-0.52-5.63-0.5-8.01-1.65c-11.74-5.69-23.22-11.91-35.04-17.4c-2.81-1.3-7.74-1.98-9.71-0.43
			c-6.04,4.77-11.11,10.75-17.4,17.13c4.43,2.26,7.19,3.97,10.16,5.15c26.77,10.71,53.45,21.69,80.42,31.88
			c24.25,9.16,48.86,17.35,73.19,26.29c2.05,0.75,3.2,3.98,4.77,6.05c-2.66,0.85-5.63,2.95-7.92,2.36
			c-14.11-3.64-27.95-8.31-42.09-11.81c-15.4-3.81-30.22-11.13-46.74-8.89c-13.55,1.84-27.17,3.43-40.56,6.09
			c-27.63,5.49-35.79,15.98-35.85,44.48c-0.02,11.28-1.14,22.7,0.25,33.81c1.32,10.6,5.26,20.88,8.03,31.21
			c43.84-8.94,84.97-17.33,126.21-25.74c1.86,6.22-0.05,8.32-5.82,10.26c-31.64,10.62-63.05,21.95-94.54,33.03
			c-4.16,1.46-8.35,2.83-12.41,4.21c3.8,15.77,19.48,24.85,19.75,41c-0.85,0.67-1.7,1.33-2.55,2
			c-10.96-11.95-21.91-23.89-32.84-35.81c-10.47,9.92-10.76,13.39-1.36,22.48c23.68,22.87,52.41,40.68,70.29,72
			c32.85-22.76,64.91-44.97,96.96-67.18c0.63,0.72,1.27,1.44,1.9,2.15c-9.03,17.79-26.81,27.25-40.88,40.21
			c-14.68,13.52-29.6,26.79-43.67,39.5c11.78,21.16,21.49,38.81,31.52,56.28c1.22,2.11,4.36,4.65,6.41,4.49
			c10.46-0.81,20.85-2.45,31.95-3.89c-10.67-24.49-20.29-46.54-29.9-68.59c1.03-0.61,2.07-1.21,3.1-1.82
			c18.71,17.25,23.78,44.05,41.07,63.39c3.35-6.04,6.61-11.27,9.24-16.79c8.11-17.02,15.91-34.18,24.04-51.19
			c1.25-2.62,3.6-4.71,5.44-7.05c0.96,0.49,1.92,0.97,2.89,1.46c-3.09,20.68-14.75,39.98-12.26,60c24.61-6,48.72-11.88,73.2-17.84
			c-6.68-36.79-13.65-75.17-20.62-113.55c1.04-0.35,2.08-0.7,3.12-1.05c1.17,0.94,2.95,1.65,3.4,2.86
			c3.03,8.2,6.17,16.39,8.56,24.78c7.44,26.16,14.37,52.46,22.07,78.53c0.78,2.64,5.51,6.04,8.2,5.86
			c12.3-0.78,24.56-2.52,36.77-4.35c3.27-0.49,7.88-1.65,9.19-4c6.55-11.75,12.2-24,18.36-36.48c-13.62-0.03-25.49-0.05-37.35-0.08
			c8.33-4.89,17.4-7.65,26.12-11.26c6.75-2.79,13.85-5.7,19.36-10.29c7.01-5.83,12.45-13.51,18.77-20.2
			c10.87-11.52,10.45-21.4-2.39-30.18c-9.9-6.77-20.15-13.23-30.88-18.55c-22.72-11.26-45.93-21.52-68.73-32.61
			C618.23,592.82,615.31,588.83,611.92,585.8z M175.01,500.47c-0.13,0.65-0.25,1.29-0.38,1.94c29.16,6.76,58.27,13.74,87.5,20.2
			c16.84,3.72,32.3,8.18,41.21,25.5c6.48,12.58,6.7,33.36-2.84,46.35c-1.25-3.1-2.3-5.71-2.82-6.99
			c-4.06,5.96-7.37,13.53-13.04,18.28c-4.7,3.94-6.71,7.32-6.42,13.02c0.76,14.79,1.39,29.59,1.91,44.39
			c0.26,7.48-1.58,13.96-10.74,16.52c6.53,13.38,12.78,26.18,19.03,38.98c0.47-0.2,0.95-0.41,1.42-0.61
			c-1.34-5.57-2.68-11.15-4.02-16.72c0.87-0.51,1.73-1.01,2.6-1.52c1.05,1.67,2.08,3.36,3.17,5.01
			c7.93,12.02,11.04,25.63,15.46,39.12c5.43,16.58-3.13,22.95-11.89,31.25c-5.09,4.82-11.11,8.65-18.28,14.13
			c14.87-5.98,27.74-10.75,40.14-16.51c2.17-1.01,3.54-6.34,3.23-9.47c-0.44-4.37-3.96-8.49-4.15-12.81
			c-0.69-15.12-5.19-28.65-13.39-41.37c-4.55-7.07-8.23-14.89-11.07-22.81c-1.83-5.1-3.41-15.01-1.69-15.85
			c8.43-4.15,2.76-8.7,1.97-13.22c-0.82-4.74-3-10-1.76-14.19c3.75-12.65,9.14-24.81,13.38-37.33c3.92-11.6,7.46-23.35,10.65-35.17
			c5.13-19.03,10.15-38.11,14.52-57.33c1.23-5.41,1.36-11.75-0.21-17.01c-8.25-27.68-13.64-55.01,2.11-82.07
			c1.14-1.96,0.67-5.34-0.05-7.76c-0.56-1.87-3.33-3.04-4.02-4.92c-4.35-11.77-1.7-22.99,2.97-34.09c1.62-3.85,2.26-8.1,3.35-12.17
			c-1.42-0.45-2.85-0.9-4.27-1.35c-7.35,21.31-14.96,42.52-21.85,63.98c-1.85,5.76-2.78,12.45-1.84,18.34
			c1.83,11.48,4.98,22.78,8.14,34c5.6,19.9,8.53,39.34-4.9,57.67c-2.46,3.36-3.46,7.79-5.39,12.33
			c-8.33-12.59-19.72-19.34-34.39-21.85c-18.51-3.17-36.75-7.86-55.19-11.49C200.51,504.39,187.73,502.58,175.01,500.47z
			 M744.45,220.31c-0.29-0.42-0.57-0.83-0.86-1.25c-3.54,4.14-6.6,8.83-10.69,12.32c-14.55,12.42-23.04,32.6-45.87,34.61
			c-10.24,0.9-20.18,5.07-30.42,6.14c-5.28,0.55-10.93-3.57-16.42-3.6c-10.8-0.05-21.68,0.73-32.36,2.32
			c-3.84,0.57-7.71,3.93-10.66,6.91c-4.99,5.04-9.88,7.42-17.41,5.86c-12.07-2.5-24.39-4.16-36.69-5.06
			c-5.19-0.38-10.59,2.09-17.84,3.7c12.74,3.92,23.3,6.13,32.93,10.42c9.14,4.08,9.28,8.63,3.22,16.94
			c-1.59,2.18-2.52,4.85-4.41,8.6c11.58-7.18,12.79-26.98,29.82-21.93c2.64-2.62,4.86-6.71,8.02-7.65
			c22.27-6.64,45.07-9.89,68.38-10.32c7.94-0.14,15.77-3.62,23.76-4.27c4.95-0.41,10.25,1.14,15.09,2.73
			c3.57,1.18,6.77,3.68,9.93,5.89c3.84,2.69,8.34,5.04,11.03,8.67c8.29,11.2,15.33,22.26,18.44,37.16
			c2.58,12.38,15.34,22.64,23.59,33.83c-0.81-9.5-2.16-18.64-6.11-26.47c-7.44-14.75-16.25-28.8-24.72-43.01
			c-6.25-10.48-11.5-22.19-25.95-23.89c-1.9-0.22-3.73-0.99-5.51-1.48c9.27-6.5,16.86-9.77,21.4-15.46
			C731.92,242.26,737.78,230.97,744.45,220.31z M831.95,578.12c1,0.23,2,0.46,3,0.69c3.1-6.7,5.65-13.72,9.42-20.01
			c6.21-10.38,6.96-20.38,1.76-31.46c-2.59-5.51-5.63-12.61-4.23-17.86c4.11-15.38,0.86-28.63-6.91-41.71
			c-2.75-4.63-7.54-11.14-6.11-14.61c4.57-11.07-2-17.52-8.14-23.16c-19.79-18.16-40.16-35.72-60.79-52.92
			c-6.15-5.13-13.89-8.33-20.91-12.42c-0.72,1.05-1.44,2.09-2.16,3.14c4.88,4.23,9.95,8.26,14.58,12.74
			c3.96,3.83,10.64,8.27,10.52,12.28c-0.36,12.69,4.82,20.07,16.07,24.31c0.26,0.1,0.13,1.2,0.18,1.84
			c-0.65-0.46-1.29-0.92-1.94-1.38c-6.22,8.64-12.43,17.28-18.65,25.92c0.78,0.56,1.55,1.12,2.33,1.68
			c19.07-29.05,33.95-31.15,58.4-11.26c-0.54,2.3-2.26,5.19-1.52,7.14c5.29,13.89,10.18,28.06,16.97,41.22
			c6.4,12.39,5.48,23.39-5.38,32.28c-1.09,0.89-1.62,2.45-3.08,4.74c8.26-4.14,14.99-0.79,14.39,7.11
			c-0.92,12.21-3.55,24.29-5.45,36.43C833.54,567.93,832.75,573.02,831.95,578.12z M740.48,708.79c10.27,1.54,18.76,3.27,27.33,4.01
			c13.56,1.16,15.14,3.2,12.31,16.16c-1.45,6.64-1.81,13.52-2.66,20.29c0.96,0.23,1.92,0.47,2.88,0.7
			c3.93-8.88,7.87-17.76,11.57-26.12c8,5.62,15.43,10.85,22.86,16.07c0.58-0.74,1.16-1.48,1.74-2.22
			c-22.42-15.14-16.91-37.56-16.09-59.12c-1.65,3.58-3.3,7.16-4.95,10.74c-1.5-11.81-2.85-23.47-1.16-34.67
			c2.97-19.66,7.81-39.04,11.67-57.58c-20.17,21.82-24.25,49.65-21.71,78.96c0.94,10.82-3.4,24.35-12.85,30.67
			C759.11,696.22,751.28,696.19,740.48,708.79z M456.42,274.04c-4.88,9.15-16.3,17.35-5.59,30.6c3.33-4.37,6.49-8.51,10.47-13.74
			c-3.19,0.36-4.85,0.55-6.76,0.76c7.94-29.76,35.32-41.21,61.38-42.98c25.07-1.7,50.29-0.69,74.87,6.91
			c-1.54-2.24-3.07-4.24-5.08-5c-16.37-6.2-32.79-12.28-49.29-18.1c-3.6-1.27-7.62-1.54-11.47-1.77c-0.59-0.03-1.35,2.69-2.24,4.6
			c-9.92,3.95-21.35,8.39-32.69,13.04c-7.68,3.15-15.2,6.67-22.87,9.85c-3.73,1.54-7.7,3.93-11.44,3.73
			c-8.6-0.47-17.13-2.3-26.13-3.65C438.46,263.5,446.82,268.4,456.42,274.04z M357.56,784.99c6.31,8.46,10.94,16.29,17.17,22.51
			c5.11,5.11,9.98,15.54,20.12,6.27c18.58,4.08,35.82,10.62,47.64,24.46c-4.5,6.64-8.24,12.16-11.98,17.68
			c0.77,0.76,1.54,1.52,2.3,2.28c4.8-14.44,15.57-18.04,28.88-19.05c8.38-0.64,16.55-4.19,27.1-7.06
			c-27.76-6.65-52.31-12.38-76.74-18.56c-3.54-0.9-9.32-4.05-9.26-6.02c0.17-5.99-4.81-6.01-7.38-8.62
			c-2.87-2.91-6.04-5.52-8.29-7.56C376.35,795.36,369.78,784.89,357.56,784.99z M797.38,434.52c-1,11.68-2.16,22.75-2.85,33.86
			c-1.22,19.47,0.29,38.39,12.32,55.1C825.55,497.28,819.88,443.25,797.38,434.52z M611.17,362.17
			c25.76-9.67,48.47-24.98,53.71-35.96c-3.41-3.16-6.92-6.71-10.73-9.88c-10.17-8.45-22.99-9.21-26.9-0.32
			C620.94,330.33,616.8,345.59,611.17,362.17z M526.48,831.29c6.2,8,11.8,16.48,18.68,23.74c6.49,6.85,15.18,9.78,24.93,8.86
			c5-0.47,7.22-1.53,4.93-7.41c-2.45-6.29-2.97-13.3-5.05-19.77c-3.27-10.18-13.67-15.5-24-12.45
			C540.08,825.99,534.4,828.4,526.48,831.29z M338.06,761.24c0.56,0.05,1.11,0.09,1.67,0.14c0.02-9.56,0-19.11,0.07-28.67
			c0.11-16.61,14.15-24.9,28.72-16.95c4.7,2.57,9.35,5.23,14.61,8.18c-6.58-22.44-44.15-55.19-60.43-51.66
			c14.08,10.26,20.55,24.04,22.9,40.73c-2.48,0.63-5.06,1.28-7.45,1.88C338.12,730.87,338.09,746.06,338.06,761.24z M732.53,340.92
			c0.84-0.6,1.67-1.21,2.51-1.81c-7.26-11.78-13.85-24.03-21.94-35.2c-9.55-13.19-23.45-16.73-39.16-11.45
			C692.92,309.58,707.9,331.15,732.53,340.92z M783.83,515.83c-3.01-2.86-5.45-5.52-8.24-7.71c-2.96-2.33-6.16-5.8-9.45-6.04
			c-14.48-1.04-27.6,3.93-39.97,11.21c11.16-1.65,22.28-3.65,32.87-7.23c8.34-2.82,12.58-0.27,15.94,7.07
			c3.64,7.95,7.88,15.62,11.86,23.41c1.07,0,2.14-0.01,3.22-0.01c0.4-8.96,1.53-17.96,0.99-26.86c-0.55-8.96-5.33-18.31-3.69-26.59
			c2.56-12.91-2.86-23.11-6.42-34.29c-4.09,16.3-11.09,32.57,1.61,48.37C786.95,502.64,788.03,508.67,783.83,515.83z M421.69,314.38
			c-6.09-3.74-11.22-9.16-16.96-9.92c-9.57-1.27-28.81,16.86-31.97,27.86C388.91,341.03,405.9,333.97,421.69,314.38z M727.64,365.76
			c-1.29-4.82-3.08-11.46-4.96-18.47c-12.51-7.95-26.66-16.94-39.73-25.24c0.32,4.21,2.5,10.13,0.59,12.11
			c-5.95,6.19-13.01,11.65-20.47,15.96c-7.33,4.23-15.68,6.7-23.59,9.95c15.34-2.78,29.9-7.67,44.64-11.93
			c3.68-1.06,8.6-1.38,11.85,0.2C707.16,353.81,717.86,360.29,727.64,365.76z M225.43,605.76c15.18,8.93,27.98,16.45,40.78,23.98
			c1.24-0.88,2.48-1.75,3.72-2.63c-2.49-9.49-4.98-18.99-7.49-28.48c-2.22-8.42-7.41-10.32-14.74-6.25
			C240.98,596.12,234.5,600.28,225.43,605.76z M349.61,311.02c0.19,0.93,0.39,1.86,0.58,2.79c4.21-1.07,8.84-1.35,12.54-3.36
			c9.11-4.95,17.68-10.91,26.74-15.95c2.4-1.33,5.81-1,8.77-1.11c2.98-0.12,6.45,1.16,8.85,0.02c3.91-1.87,7.11-5.21,10.63-7.94
			c-7.13-8.71-28.12-10.51-36.85-2.57c-1.25,1.14-2.62,4.01-2.05,5c4.49,7.8-1.3,9.57-6.45,12.01
			C364.74,303.53,357.19,307.31,349.61,311.02z M356.27,718.35c-8.43,11.09-10.6,22.48-6.42,27.86c4.21,5.42,17.29,5.1,30.6-1.53
			C372.25,735.74,364.4,727.2,356.27,718.35z M325.51,718.34c-3.36-22.12-5.17-43.61-26.96-56.31
			C301.27,683.91,308.57,702.76,325.51,718.34z M360.18,341.33c6.97,3.24,6.63,21.2,23.02,14.61c0.84,1.92,1.67,3.82,2.4,5.48
			c9.87-5.88,19.18-11.42,29.42-17.52c0.97,4.7,1.49,7.27,2.02,9.84c1.19-1.77,1.18-3.39,1.2-5.02c0.08-11.45-0.34-11.87-11.49-8.22
			c-6.38,2.09-12.66,6.9-18.84,6.67C378.13,346.8,368.48,343.23,360.18,341.33z M614.18,802.44c-11.13,16.09-11.41,31.83-7.12,48.78
			C619.8,840.79,623.68,817.99,614.18,802.44z M736.92,495.99c23.42-8.11,35.26-32.86,27.95-45.23
			C755.7,465.6,746.6,480.33,736.92,495.99z M353.43,347.95c-10.32,31.17-10.32,31.17-3.44,36.51
			C363.52,365.68,364.23,359.52,353.43,347.95z M815.26,621.87c12.59,1.64,24.94,2.43,36.89,5.03c12.08,2.63,23.78,7.06,35.64,10.7
			c-17.02-8.24-34.56-14.96-51.9-22.14C826.92,611.75,820.17,613.35,815.26,621.87z M493.23,292.32c8.01-2.91,17.83-3.93,23.49-9.32
			c4.87-4.64,5.5-14.17,6.93-21.75c0.42-2.21-2.85-5.12-4.43-7.71c-1.32,0.1-2.65,0.2-3.97,0.29
			C519.24,273.91,503.26,280.85,493.23,292.32z M755.62,740.16c1.27,0.31,2.54,0.62,3.81,0.93c2.62-6.54,5.24-13.09,7.86-19.63
			c-7.1-2.13-14.19-4.25-21.29-6.38c-0.5,0.94-0.99,1.88-1.49,2.83C748.21,725.33,751.92,732.74,755.62,740.16z M263.31,576.85
			c-14.75-7.25-19.97,5.12-27.73,12.59c11.62-2,22.06-20.25,35.54,1.41c-0.84-11.49-1.46-20.07-2.08-28.64
			c-0.63,0.02-1.25,0.05-1.88,0.07C266.01,566.62,264.86,570.96,263.31,576.85z M641.1,796.54c-0.76,0.95-1.51,1.91-2.27,2.86
			c3.49,3.6,8.98,10.82,10.15,10.18c6.18-3.39,11.28-8.76,16.75-13.45c-0.65-0.9-1.3-1.8-1.95-2.71
			C656.22,794.47,648.66,795.5,641.1,796.54z M410.89,800.71c0.92-0.92,1.83-1.84,2.75-2.76c-4.33-7.82-8.66-15.64-14.22-25.69
			c-2.36,5.64-6.72,11.83-5.36,13.59C398.56,791.67,405.12,795.88,410.89,800.71z M706.94,799.84
			c10.28-12.43,24.93-14.07,39.65-15.54C724.75,777.91,717.97,780.56,706.94,799.84z M287.39,575.46
			c13.21-12.48,12.08-23.55-1.41-29.55C286.44,555.4,286.87,564.49,287.39,575.46z M426.96,803.97c0.82-0.55,1.64-1.09,2.47-1.64
			c-6.29-10.25-3.41-26.76-19-30.68c-0.97,0.65-1.94,1.31-2.9,1.96C414.01,783.73,420.49,793.85,426.96,803.97z M830.41,541.24
			c-16.64,9.07-19.3,15.12-13.84,32.25C821.45,562.13,825.61,552.43,830.41,541.24z M484.21,842.91
			c8.95,4.48,16.08,8.05,24.18,12.11C509.06,839.33,509.06,839.33,484.21,842.91z M613.17,206.25
			c-10.23,11.58-20.45,23.17-30.11,34.11C601.74,237.61,605.44,219.92,613.17,206.25z M545.75,259.22
			c8.72,12.6,19.15,15.49,33.59,9.87C567.99,265.76,557.61,262.71,545.75,259.22z M480.3,273.15c12.1,1.19,20.26-3.42,25.49-14.5
			c-6,2.86-11.45,5.21-16.65,8.03C486.14,268.31,483.56,270.72,480.3,273.15z M380.66,488.69c-19.06-2.79-38.25,3.02-40.4,8.6
			C352.66,494.66,366.66,491.68,380.66,488.69z M869.45,427.11c-11.18,1.14-19.52,0.09-26.29,17.47
			C851.9,438.78,861.14,432.63,869.45,427.11z M716.67,758.95c0.14,1.52,0.28,3.03,0.42,4.55c6.39,0.78,12.97,3.65,18.76-1.94
			c-0.13-1.45-0.27-2.89-0.4-4.34C729.19,757.79,722.93,758.37,716.67,758.95z M329.8,628.67c-9.53-0.75-12.79,5.62-14.51,11.99
			c-0.68,2.52,3.05,6.24,4.76,9.41c0.98-0.12,1.96-0.24,2.93-0.35C315.35,639.22,325.6,635.32,329.8,628.67z M277.1,490.16
			c0.92,0.39,1.85,0.77,2.77,1.16c3.17-5.64,6.34-11.28,9.51-16.92C279.48,476.29,275.41,481.54,277.1,490.16z"/>
	</g>
</g>
<g id="Capa_1">
	<g id="Nuevo_símbolo_10">
	</g>
</g>
</svg>
